<?xml version="1.0" encoding="UTF-8"?> <svg xmlns="http://www.w3.org/2000/svg" height="66" viewBox="0 0 71 66" width="71"><g fill="#242021"><path d="m67.0718186 33.3184032c-.2959195-2.313503-1.5578135-4.3934496-3.4730429-5.7245247l-3.9303935-2.726468 5.3106753-6.1736453c.5332363-.6237677.8332844-1.413368.8488615-2.2338462v-.0105813c.018759-.7978449-.2295198-1.5790955-.7054251-2.2197377l-9.7254607-12.84579109c-.6738545-.84872268-1.6889903-1.35542954-2.7723206-1.38380891h-39.409749c-1.0830146.02857547-2.0979233.53473854-2.7723207 1.3826332l-9.72546071 12.8551968c-.47713333.6408457-.72514948 1.4234009-.7042494 2.222089.01577162.8204406.3157956 1.6099774.84886154 2.2338462l29.42563237 34.1790218c.6582625.7687603 1.6197455 1.2112749 2.6318235 1.2112749s1.973561-.4425146 2.6318235-1.2112749l6.9096389-8.0289133 2.4031481 18.9383125c.0779717.6202213.3996934 1.18387.8940806 1.5664079.4943873.382538 1.1207459.5524775 1.7406822.4722707l20.9946267-2.6641555c1.2882417-.1636667 2.1999166-1.3406328 2.0363271-2.6288842zm-4.1067498-18.0341927h-17.2206024l8.2299595-11.88641293zm-30.0452307 33.4054057-9.0165085-31.0539887h18.033017zm0-45.44818786 8.3369489 12.04278216h-16.6738979zm-10.5813766 11.15277086-8.3345975-12.0427822h16.6715465zm12.8258041-12.0427822h16.6715465l-8.3345975 12.0427822zm-23.296664 1.04638057 8.2299595 11.88641293h-17.22295381zm-8.81781375 14.23782993h18.40571665l9.3645182 32.2520357zm31.97104125 32.2508599 9.3633426-32.2508599h18.4057166l-5.0637766 5.8785425-1.9340404-1.3426591c-1.9746495-1.3792969-4.6734003-1.0366144-6.2406608.7924276l-6.2077409 7.1941603c-1.5216779 1.7676114-2.2231605 4.0972-1.9305133 6.4111384l.6501668 5.1284405zm12.176813 13.6017717-3.4530559-27.2094219c-.2097453-1.6530985.291939-3.3175453 1.3802818-4.5793846l6.2065652-7.1941603c.7839185-.9130643 2.1318501-1.0842867 3.1191547-.3962138l7.8067044 5.4164891c1.368375.9510416 2.2697764 2.4372858 2.4807449 4.0902899l3.4530559 27.2082461z"></path><path d="m54.1425522 34.1637377c1.931993-.2458201 3.2991057-2.0110029 3.0538589-3.9430688-.2452467-1.9320658-2.0100237-3.2997022-3.9421623-3.0550289-1.9321385.2446734-3.3002986 2.0090445-3.0561986 3.9412555.1173137.9286151.5989211 1.7725212 1.3387598 2.3458685.7398385.5733474 1.677232.829114 2.6057422.7109737zm-.5878542-4.6652114c.6436976-.0810915 1.231417.3745619 1.3132664 1.0181636.059528.4718226-.1710448.933041-.5841901 1.1685642-.4131451.2355232-.9274889.1989623-1.3031651-.0926325-.3756763-.2915946-.5386912-.7807902-.4130222-1.2394486.125669-.4586582.5152699-.7964411.987111-.8558224z"></path><path d="m59.9282138 47.7443466c-1.2707645-.6869417-2.7276839-.9501511-4.158481-.7512778-1.8940664.2445474-3.634115-.6231255-3.7951871-1.8881878-.161072-1.2650624 1.3062122-2.5360033 3.2038057-2.7793749 1.3928551-.3074824 2.8341167.2515918 3.6552777 1.4179044.3006553.5474091.9768369.7642213 1.539752.4937093.5629152-.2705121.8160952-.9339342.5765234-1.5106971-.9997641-1.7509104-2.8762785-2.8156666-4.8921231-2.7758478l-.157545-1.2697652c-.0863295-.6399757-.6726738-1.0905338-1.313299-1.0091641-.6406253.0813697-1.0957117.6642064-1.0193066 1.3054427l.1598963 1.2603595c-2.6030186.7712648-4.3701085 2.9098785-4.085587 5.1637117.3268469 2.5724502 3.2014542 4.3336616 6.4240712 3.9256907.9274356-.1363404 1.8742158.0250238 2.7041296.4608777.5961964.2429368 1.0151987.7883193 1.0963102 1.4269814s-.188258 1.2714694-.7047993 1.6557263c-.6936274.6278668-1.5681861 1.0200806-2.4983805 1.1204502-1.3914587.3099629-2.8329067-.2464018-3.6552778-1.4108502-.1669715-.4019796-.5423712-.6788148-.9757392-.7195502-.4333679-.0407352-.8537797.161296-1.0927345.5251198-.2389549.3638237-.2573458.8298971-.0478016 1.2114183.9994584 1.7513633 2.8760318 2.816604 4.8921231 2.7770235l.1610721 1.2709409c.0745399.586874.5735385 1.0269597 1.1651271 1.0275692.0499114-.0002513.0997665-.0033918.149315-.0094057.3095326-.039013.5908679-.1994523.7820547-.4459885.1911869-.2465362.2765472-.5589524.2372845-.8684536l-.1704777-1.2674138c1.0044476-.2823004 1.9254719-.8039318 2.6841425-1.520191 1.0511823-.9005206 1.5791984-2.2691933 1.4051826-3.6423793s-1.0267464-2.5668849-2.2693283-3.1767301z"></path></g></svg> 