<?xml version="1.0" encoding="UTF-8"?> <svg xmlns="http://www.w3.org/2000/svg" height="66" viewBox="0 0 96 66" width="96"><g fill="#242021"><path d="m56.502413 50.0467045-3.2834332-11.9024454c0-.1368097-.1368098-.1368097-.1368098-.2736194s-.1368097-.1368097-.1368097-.2736195c0 0 0 0 0-.1368097-.1368097-.1368097-.1368097-.1368097-.2736194-.1368097h-.1368097c-.1368097 0-.2736195-.1368097-.4104292-.1368097h-22.2999838l-7.7981538-7.6613441 7.3877247-7.3877247c1.3680971-1.3680972 2.1889554-3.2834332 2.1889554-5.1987693 0-2.0521457-.8208583-3.830672-2.1889554-5.1987692-1.3680972-1.3680972-3.2834332-2.18895546-5.1987693-2.18895546-2.0521457 0-3.830672.82085826-5.1987692 2.18895546s-2.1889555 3.2834332-2.1889555 5.1987692c0 2.0521458.8208583 3.8306721 2.1889555 5.1987693.5472389.5472388 1.3680972.5472388 1.915336 0 .5472389-.5472389.5472389-1.3680972 0-1.9153361-.8208583-.8208583-1.3680971-2.0521457-1.3680971-3.2834332 0-1.2312874.5472388-2.4625749 1.3680971-3.2834332 1.7785264-1.7785263 4.7883401-1.7785263 6.7036762 0 1.7785263 1.7785264 1.7785263 4.7883401 0 6.7036762l-7.5245345 7.2509149-9.5766801-9.4398704c-.54723889-.5472389-1.36809719-.5472389-1.91533605 0-.54723887.5472389-.54723887 1.3680972 0 1.915336l9.57668015 9.4398705-7.5245344 7.5245344c-1.77852632 1.7785263-4.78834009 1.7785263-6.70367612 0-1.77852631-1.7785263-1.77852631-4.7883401 0-6.7036761 1.77852632-1.7785264 4.9251498-1.7785264 6.70367612 0 .5472389.5472388 1.3680972.5472388 1.915336 0 .5472389-.5472389.5472389-1.3680972 0-1.9153361-1.3680971-1.3680971-3.28343317-2.1889554-5.1987692-2.1889554-2.05214575 0-3.83067207.8208583-5.19876923 2.1889554-1.36809717 1.3680972-2.18895547 3.2834332-2.18895547 5.1987693 0 2.0521457.8208583 3.830672 2.18895547 5.1987692 1.36809716 1.3680972 3.28343319 2.1889555 5.19876923 2.1889555 2.05214575 0 3.8306721-.8208583 5.1987692-2.1889555l7.5245344-7.5245344 7.5245345 7.5245344.1368097 22.4367935c0 .1368097 0 .2736194.1368097.4104292v.1368097c0 .1368097.1368097.2736194.1368097.2736194h.1368097c.1368097.1368097.1368097.1368097.2736195.1368097 0 0 .1368097 0 .1368097.1368097h.1368097l12.039255 3.420243h.4104292c.4104291 0 .6840486-.1368098.957668-.4104292l13.9545911-13.9545911c.4104292-.4104291.5472389-.8208583.4104292-1.3680971zm-8.0717733-10.1239191-3.8306721 3.9674818-9.0294413-3.9674818zm-6.0196276 6.0196276-5.7460081 5.7460081-4.5147206-10.3975385zm-11.9024453-1.6417166 4.2411012 9.4398704-4.2411012 4.2411012zm10.3975385 18.8797408-9.0294413-2.5993846 5.0619595-5.0619595 9.0294413 2.5993846zm-1.9153361-9.7134898 5.1987693-5.335579 2.0521457 7.3877247zm9.9871093 1.5049069-2.5993846-9.0294413 4.7883401-4.7883401 2.5993846 9.0294413z"></path><path d="m93.7146559 27.3362915c-3.0098138-3.0098138-7.6613442-3.0098138-10.5343482-.1368097l-7.5245344 7.5245344-7.5245344-7.5245344-.1368098-22.43679354c0-.13680972 0-.27361943-.1368097-.41042915v-.13680972c0-.13680971-.1368097-.27361943-.1368097-.27361943s0 0-.1368097 0c-.1368097-.13680972-.1368097-.13680972-.2736194-.13680972 0 0-.1368097 0-.1368097-.13680971 0 0 0 0-.1368098 0l-12.039255-3.42024292c-.4104292-.13680971-.957668 0-1.3680972.41042915l-14.0914008 13.81778134c-.4104292.4104292-.5472389.8208583-.4104292 1.3680972l3.420243 12.0392551v.1368097s0 .1368097.1368097.1368097c0 .1368097.1368097.1368097.1368097.2736194v.1368097c.1368097.1368098.1368097.1368098.2736194.1368098h.1368097c.1368098 0 .2736195.1368097.4104292.1368097l22.2999838.1368097 7.7981538 7.6613441-7.3877246 7.3877247c-1.3680972 1.3680972-2.1889555 3.2834332-2.1889555 5.1987693 0 2.0521457.8208583 3.830672 2.1889555 5.1987692 1.3680971 1.3680972 3.2834331 2.1889555 5.1987692 2.1889555 2.0521457 0 3.830672-.8208583 5.1987692-2.1889555 2.8730041-2.8730041 2.8730041-7.6613441 0-10.5343482-.5472389-.5472389-1.3680972-.5472389-1.915336 0-.5472389.5472389-.5472389 1.3680972 0 1.915336.8208583.8208583 1.3680971 2.0521458 1.3680971 3.2834332 0 1.2312875-.5472388 2.4625749-1.3680971 3.2834332-1.7785263 1.7785264-4.7883401 1.7785264-6.7036761 0-1.7785263-1.7785263-1.7785263-4.78834 0-6.7036761l7.5245344-7.1141052 9.5766801 9.4398704c.2736195.2736194.5472389.4104292.9576681.4104292.4104291 0 .6840485-.1368098.957668-.4104292.5472388-.5472389.5472388-1.3680972 0-1.915336l-9.5766802-9.4398705 7.5245344-7.5245344c1.7785263-1.7785263 4.7883401-1.7785263 6.7036761 0 1.7785264 1.7785263 1.7785264 4.7883401 0 6.7036761-1.7785263 1.7785263-4.9251498 1.7785263-6.7036761 0-.5472388-.5472388-1.3680971-.5472388-1.915336 0-.5472389.5472389-.5472389 1.3680972 0 1.9153361 2.873004 2.873004 7.6613441 2.873004 10.5343482 0 1.3680971-1.3680972 2.1889554-3.2834332 2.1889554-5.1987693 0-2.0521457-.8208583-3.830672-2.1889554-5.1987692zm-38.8539595-24.35212956 9.0294413 2.59938462-5.0619596 5.06195954-9.0294413-2.59938464zm1.915336 9.71348986-5.1987692 5.335579-2.0521458-7.3877247zm-14.7754494 3.2834332 4.7883401-4.7883401 2.5993846 9.0294413-4.7883401 4.7883401zm5.1987692 10.2607288 3.9674818-3.9674818 8.8926316 3.9674818zm6.1564373-6.0196276 5.7460081-5.7460081 4.5147206 10.3975385zm11.9024453 1.6417166-4.2411012-9.4398704 4.2411012-4.24110123z"></path></g></svg> 