<?xml version="1.0" encoding="UTF-8"?> <svg xmlns="http://www.w3.org/2000/svg" height="66" viewBox="0 0 67 66" width="67"><g fill="#242021"><path d="m39.7 24.2c.6075132 0 1.1-.4924868 1.1-1.1v-1.1825c3.1163-.44 5.5-2.6983 5.5-5.4175 0-3.0327-2.9601-5.5-6.6-5.5-2.4266 0-4.4-1.4806-4.4-3.3s1.9734-3.3 4.4-3.3c1.2337426-.02495579 2.4343015.40051916 3.377 1.1968.2923862.26330475.7030335.35062219 1.0772552.22906072.3742216-.12156147.6551645-.43353379.737-.8184.0818355-.3848662-.047869-.78415597-.3402552-1.04746072-1.0591005-.91213663-2.3640257-1.49112546-3.751-1.6643v-1.1957c0-.60751322-.4924868-1.1-1.1-1.1s-1.1.49248678-1.1 1.1v1.1825c-3.1163.44-5.5 2.6983-5.5 5.4175 0 3.0327 2.9601 5.5 6.6 5.5 2.4266 0 4.4 1.4806 4.4 3.3s-1.9734 3.3-4.4 3.3c-1.2337426.0249558-2.4343015-.4005191-3.377-1.1968-.2923862-.2633048-.7030335-.3506222-1.0772552-.2290607-.3742216.1215614-.6551645.4335338-.737.8184s.047869.784156.3402552 1.0474607c1.0591005.9121366 2.3640257 1.4911255 3.751 1.6643v1.1957c0 .6075132.4924868 1.1 1.1 1.1z"></path><path d="m32 25.3c-1.8139 0-2.926 1.4806-3.74 2.5608-1.1280702 1.4179256-2.0005732 3.0214848-2.5784 4.7388-.0557797.2334692-.1490213.4563575-.2761.66-.11-.0352-.6721.11-.8481-.5566-.1849385-.7669023-.2714346-1.5542387-.2574-2.343v-23.21c.0021404-1.32317609-.6778474-2.55402572-1.7991075-3.25657474-1.1212603-.70254902-2.5254482-.7775833-3.7151925-.19852526-.0780749-2.06101421-1.7715575-3.69155938-3.83405-3.69155938s-3.7559751 1.63054517-3.83405 3.69155938c-1.18939976-.5763411-2.59170027-.49993551-3.71143995.20222107-1.11973969.70215659-1.79925532 1.93119811-1.79846005 3.25287893v4.2438c-.63350364-.3102856-1.34035607-.4397039-2.0427-.374-1.99614623.2603274-3.48147053 1.9735087-3.4562 3.9864v21.2113c-.0088.2277-.3619 5.6507 4.1899 12.2386.13201904.1836054.20492649.4030952.209.6292v1.8194c-.68156576.3882538-1.10392246 1.1109157-1.1077 1.8953v2.5058c-.67842639.3898539-1.0976405 1.1117405-1.1 1.8942v7.7c0 .6075132.49248677 1.1 1.1 1.1h23.1c.6075132 0 1.1-.4924868 1.1-1.1v-7.7c-.0023595-.7824595-.4215736-1.5043461-1.1-1.8942v-2.5058c-.0047156-.7812443-.423402-1.5013849-1.1-1.892v-2.0416c.0005947-.6208356.2634764-1.2125194.7238-1.6291 1.8566176-1.6854477 3.3316496-3.7481673 4.3263-6.05.4961-1.0538.8338-2.2242 1.2342-3.2725.5841-1.5257 2.4585-6.4119 3.0459-7.7231.5864021-.9604922.6952486-2.1383091.2948-3.19-.6284321-1.0704714-1.7838373-1.7204393-3.025-1.7017zm-7.7 29.7h-18.7v-2.2h18.7zm1.1 8.8h-20.9v-6.6h20.9zm7.326-34.5059c-.6347 1.4168-3.0173 7.5735-3.52 9.02-.8735656 2.7781854-2.4409116 5.287832-4.554 7.2919-.9228441.8328885-1.450307 2.0172823-1.452 3.2604v1.7336h-16.5v-1.5147c-.00343002-.6731096-.21261689-1.3290736-.5995-1.8799-4.0733-5.9059-3.8005-10.7789-3.7917-10.9054v-21.2938c-.03032906-.8852389.60194843-1.6550909 1.4762-1.7974.4651412-.0489536.92920477.1017966 1.27677799.4147594.34757321.3129628.54599652.7587304.54592201 1.2264406v9.35c0 .6075132.49248677 1.1 1.1 1.1.60751322 0 1.1-.4924868 1.1-1.1v-17.05c-.00000002-.58948824.31448821-1.13419783.82499999-1.42894195.51051178-.29474414 1.13948824-.29474414 1.65000001 0 .5105118.29474412.825.83945371.825 1.42894195v17.05c0 .6075132.4924868 1.1 1.1 1.1s1.1-.4924868 1.1-1.1v-20.35c0-.91126983.7387302-1.65 1.65-1.65s1.65.73873017 1.65 1.65c-.0055 18.0862 0 3.839 0 20.35 0 .6075132.4924868 1.1 1.1 1.1s1.1-.4924868 1.1-1.1v-17.05c0-.91126983.7387302-1.65 1.65-1.65s1.65.73873017 1.65 1.65v23.21c-.0145549.9763107.0963526 1.9504476.33 2.8985.319851 1.2272239 1.3879742 2.1128983 2.6532 2.2 1.3579969.0588097 2.5367334-.9276845 2.7181-2.2748.5042575-1.4495393 1.251971-2.8024917 2.211-4.0007.5962-.7887 1.2694-1.683 1.98-1.683.4196832-.0094477.8184768.1827913 1.0725.517.1232.231-.1925.9339-.3465 1.2771z"></path><path d="m63.3786 29.7462c-.5558799-.0924546-1.1261111-.0428857-1.6577.1441v-2.2561c.021171-1.6424034-1.1315283-3.0665165-2.7423-3.388-.5559004-.0919286-1.1260003-.0423711-1.6577.1441.048711-1.6633691-1.110288-3.1189751-2.7423-3.4441-1.67469-.2812283-3.290521.7505273-3.74 2.3881-.5633485-.2227816-1.1767627-.2878118-1.7743-.1881-1.6103337.3219455-2.7624722 1.7459369-2.7412 3.388v18.0532c.0126203.2969018-.1918785.5591633-.4829.6193-.3124405.0811659-.6361958-.0842565-.7535-.385-.811531-1.4952643-1.9176574-2.8105668-3.2516-3.8665-1.7952-1.4982-4.389-1.3596-5.2283.8206-.4795419 1.3246104-.0634875 2.8075505 1.0351 3.6894.6662543.7615328 1.2217291 1.6132608 1.65 2.53 1.1 2.0317.5852 3.2142 4.1118 6.7573 1.0987159.8570923 1.7635934 2.1550525 1.8172 3.5475v1.1c-.6075132 0-1.1.4924868-1.1 1.1v4.4c0 .6075132.4924868 1.1 1.1 1.1h17.6c.6075132 0 1.1-.4924868 1.1-1.1v-4.4c-.0033421-.5605871-.4317234-1.0270466-.99-1.078.2052366-1.3130105.6580295-2.5750822 1.3343-3.7191 1.2551-2.3925 1.8592784-3.8423 1.8592784-10.6029v-11.9658c.02059-1.6434252-1.1337926-3.0679038-2.7458784-3.388zm-1.6577 34.0538h-15.4v-2.2h15.4zm2.2-18.7c0 7.3425-.7062 7.7517-2.0845 10.5083-.5807201 1.1936312-.9612611 2.474612-1.1264 3.7917h-13.2891v-1.1c-.0547341-1.9709601-.9484224-3.824773-2.4563-5.0952-3.19-3.2076-2.4475-3.8764-3.74-6.2524-.5371027-1.1631487-1.2638435-2.2289112-2.1505-3.1537-.3792098-.2853243-.5457772-.7732535-.4202-1.2309.0463362-.1869761.191014-.3337629.3773-.3828.5084027-.0542491 1.0155129.1133177 1.3915.4598 1.1399244.8976922 2.0821415 2.0211626 2.7676 3.3.6206849 1.139921 1.9358387 1.7132196 3.1934291 1.392072 1.2575904-.3211477 2.1368382-1.4548251 2.1349709-2.752772v-18.0499c-.0217128-.5685133.3555646-1.0753653.9064-1.2177.3209801-.0580618.6511747.0293268.9014116.2385656s.3947047.5187454.3943884.8449344v15.4c0 .6075132.4924868 1.1 1.1 1.1s1.1-.4924868 1.1-1.1v-17.6c-.0001405-.3254992.1438848-.6343468.3933302-.8434563.2494453-.2091095.5786935-.2970061.8991698-.2400437.5512738.1419013.9290927.6488657.9075 1.2177v17.4658c0 .6075132.4924868 1.1 1.1 1.1s1.1-.4924868 1.1-1.1v-14.3c-.0001405-.3254992.1438848-.6343468.3933302-.8434563.2494453-.2091095.5786935-.2970061.8991698-.2400437.5512738.1419013.9290927.6488657.9075 1.2177v14.1658c0 .6075132.4924868 1.1 1.1 1.1s1.1-.4924868 1.1-1.1v-8.8c-.0001405-.3254992.1438848-.6343468.3933302-.8434563.2494453-.2091095.5786935-.2970061.8991698-.2400437.5512738.1419013.9290927.6488657.9075 1.2177z"></path></g></svg> 