<?xml version="1.0" encoding="UTF-8"?> <svg xmlns="http://www.w3.org/2000/svg" height="66" viewBox="0 0 48 66" width="48"><g fill="#242021"><path d="m23.6579405 6.1754386c-1.5498904 0-9.2817526-.14925984-9.2817526-3.0877193s7.7318622-3.0877193 9.2817526-3.0877193c1.5503928 0 9.2817525.14925984 9.2817525 3.0877193s-7.7313597 3.0877193-9.2817525 3.0877193zm-6.9398302-3.0877193c.8900311.44275399 3.2872351 1.02923976 6.9398302 1.02923976 3.6530975 0 6.0497989-.58648577 6.9403325-1.02923976-.8905336-.44275399-3.2862299-1.02923977-6.9403325-1.02923977-3.6536003 0-6.0497991.58648578-6.9398302 1.02923977z"></path><path d="m5.14820906 14.3797057c-.56889619 0-1.02923976-.4603435-1.02923976-1.0292397 0-.5693987.46034357-1.0292398 1.02923976-1.0292398 5.09091744 0 9.23250184-4.14208691 9.23250184-9.2335069 0-.56939873.4598409-1.02923977 1.0292398-1.02923977.5688962 0 1.0292398.45984104 1.0292398 1.02923977 0 6.22569444-5.065287 11.2919864-11.29098144 11.2919864z"></path><path d="m1.03527047 18.5243056c-.5688962 0-1.02923977-.4603436-1.02923977-1.0292398 0-2.8384503 2.30975877-5.1482091 5.14820907-5.1482091.56939872 0 1.02923976.4598411 1.02923976 1.0292398 0 .5688962-.45984104 1.0292398-1.02923976 1.0292398-1.70317066 0-3.08972954 1.3860563-3.08972954 3.0897295 0 .5688962-.45984104 1.0292398-1.02923976 1.0292398z"></path><path d="m42.1842562 14.3776955c-6.2246893 0-11.2894736-5.06528694-11.2894736-11.2899762 0-.56939873.459841-1.02923977 1.0292397-1.02923977.5688962 0 1.0292398.45984104 1.0292398 1.02923977 0 5.08940975 4.1405792 9.2314967 9.2309941 9.2314967.5693988 0 1.0292398.459841 1.0292398 1.0292397 0 .5688962-.459841 1.0292398-1.0292398 1.0292398z"></path><path d="m46.3198099 18.5469207c-.5688962 0-1.0292397-.459841-1.0292397-1.0292398 0-1.7157346-1.3945998-3.1113396-3.1103344-3.1113396-.5688962 0-1.0292398-.4603434-1.0292398-1.0292398 0-.5693987.4603436-1.0292397 1.0292398-1.0292397 2.8510142 0 5.1688139 2.3198099 5.1688139 5.1698191 0 .5678911-.459841 1.0292398-1.0292398 1.0292398z"></path><path d="m23.6745249 59.6979167c-13.0539566 0-23.67251467-18.9223319-23.67251467-42.1802358 0-.5693987.46034357-1.0292398 1.02923977-1.0292398.56939873 0 1.02923977.4598411 1.02923977 1.0292398 0 21.7487207 9.89839183 40.1217562 21.61403513 40.1217562 11.7156432 0 21.614035-18.3740405 21.614035-40.1217562 0-.5693987.4603436-1.0292398 1.0292398-1.0292398.5693987 0 1.0292398.4598411 1.0292398 1.0292398 0 23.2579039-10.6185581 42.1802358-23.6725146 42.1802358z"></path><path d="m13.3841374 62.7816155c-.5688962 0-1.0292397-.4603436-1.0292397-1.0292398v-7.4579678c0-.5688962.4603435-1.0292398 1.0292397-1.0292398.5693988 0 1.0292398.4603436 1.0292398 1.0292398v7.4579678c0 .5688962-.459841 1.0292398-1.0292398 1.0292398z"></path><path d="m33.9649123 62.7816155c-.5693987 0-1.0292398-.4603436-1.0292398-1.0292398v-7.4579678c0-.5688962.4598411-1.0292398 1.0292398-1.0292398s1.0292397.4603436 1.0292397 1.0292398v7.4579678c0 .5688962-.459841 1.0292398-1.0292397 1.0292398z"></path><path d="m36.0243969 62.785636-24.698739-.0040205c-.5688962 0-1.0292398-.4613486-1.0292398-1.0292398 0-.5693987.4613488-1.0292397 1.0292398-1.0292397l24.698739.0040204c.5693988 0 1.0292397.4613487 1.0292397 1.0292398 0 .5693987-.4608461 1.0292398-1.0292397 1.0292398z"></path><path d="m36.0243969 65.8753655-24.698739-.0020102c-.5688962 0-1.0292398-.4608461-1.0292398-1.0292398 0-.5688962.4613488-1.0292398 1.0292398-1.0292398l24.698739.0020103c.5693988 0 1.0292397.4613487 1.0292397 1.0292397 0 .5693988-.4608461 1.0292398-1.0292397 1.0292398z"></path><path d="m11.3256579 65.8733553c-.5688962 0-1.0292398-.4598411-1.0292398-1.0292398v-3.0917398c0-.5693987.4603436-1.0292397 1.0292398-1.0292397.5693987 0 1.0292398.459841 1.0292398 1.0292397v3.0917398c0 .5693987-.4598411 1.0292398-1.0292398 1.0292398z"></path><path d="m36.0243969 65.8753655c-.5688961 0-1.0292398-.459841-1.0292398-1.0292398v-3.0897295c0-.5688962.4603437-1.0292398 1.0292398-1.0292398.5693988 0 1.0292397.4603436 1.0292397 1.0292398v3.0897295c0 .5693988-.4598409 1.0292398-1.0292397 1.0292398z"></path><path d="m23.6745249 33.9749635c-4.876325 0-13.3791118-14.3957877-13.3791118-22.6513158 0-.5688962.4603434-1.0292398 1.0292397-1.0292398.5693988 0 1.0292398.4603436 1.0292398 1.0292398 0 7.9600238 8.1248629 20.5928362 11.3206323 20.5928362s11.3206322-12.6328124 11.3206322-20.5928362c0-.5688962.4603437-1.0292398 1.0292398-1.0292398.5693988 0 1.0292397.4603436 1.0292397 1.0292398 0 8.2555281-8.5022843 22.6513158-13.3791117 22.6513158z"></path><path d="m23.6579405 42.2088816c-2.2705593 0-4.1169591-1.8463999-4.1169591-4.1169591 0-2.2700566 1.8463998-4.116959 4.1169591-4.116959 2.2705591 0 4.116959 1.8469024 4.116959 4.116959 0 2.2705592-1.8463999 4.1169591-4.116959 4.1169591zm0-6.1754386c-1.1352797 0-2.0584796.9237024-2.0584796 2.0584795 0 1.1352797.9231999 2.0584795 2.0584796 2.0584795 1.1352796 0 2.0584795-.9231998 2.0584795-2.0584795 0-1.1347771-.9231999-2.0584795-2.0584795-2.0584795z"></path><path d="m23.6579405 36.033443c-.5688962 0-1.0292398-.4598411-1.0292398-1.0292398v-2.0584795c0-.5688962.4603436-1.0292398 1.0292398-1.0292398.5693987 0 1.0292397.4603436 1.0292397 1.0292398v2.0584795c0 .5693987-.459841 1.0292398-1.0292397 1.0292398z"></path></g></svg> 