<?xml version="1.0" encoding="UTF-8"?> <svg xmlns="http://www.w3.org/2000/svg" height="60" viewBox="0 0 60 60" width="60"><g fill="#242021"><path d="m50.869427 0h-41.73897627c-5.03485045 0-9.13045073 4.09560863-9.13045073 9.13046934v28.69567346c0 5.0347384 4.09560028 9.130347 9.13045073 9.130347h28.15561647l12.6600063 12.6626001c.2504341.2478667.584387.3809101.9234758.3809101.1669153 0 .3365208-.0338723.4983002-.0991711.487784-.2009102.8060848-.6783012.8060848-1.2052166v-11.8304675c4.4191592-.6364806 7.8260657-4.4477823 7.8260657-9.0391243v-28.69555116c0-5.03486071-4.0958448-9.13046934-9.130573-9.13046934zm6.5216806 37.8260205c0 3.5974296-2.9269485 6.5216939-6.5216806 6.5216939-.7199981 0-1.3043851.5843882-1.3043851 1.3043877v9.8947352l-10.8156227-10.8182128c-.245176-.2426085-.576561-.3809101-.9234758-.3809101h-28.69549267c-3.59473208 0-6.52168065-2.9243866-6.52168065-6.5216939v-28.69555116c0-3.59742962 2.92694857-6.52169394 6.52168065-6.52169394h41.73897627c3.5947321 0 6.5216806 2.9243866 6.5216806 6.52169394z"></path><path d="m29.6 31.2c-2.205375 0-4 1.794625-4 4s1.794625 4 4 4 4-1.794625 4-4-1.794625-4-4-4zm0 5.333375c-.736 0-1.333375-.6-1.333375-1.333375s.597375-1.333375 1.333375-1.333375 1.333375.6 1.333375 1.333375-.597375 1.333375-1.333375 1.333375z"></path><path d="m34.1549522 9.24276423c-.7358431-.79036246-1.7760428-1.24276423-2.8551249-1.24276423h-2.6002553c-1.0790821 0-2.1166002.45240177-2.8525652 1.24276423-.7358431.78780307-1.1129672 1.85640727-1.037518 2.95365217l1.0999251 12.8102094c.1507766 2.1268489 1.9398614 3.7933742 4.0902248 3.7933742 2.132202 0 3.9212868-1.6666471 4.0695037-3.7726554l1.1207682-12.8492095c.0780088-1.0762824-.2991153-2.1448865-1.0349584-2.93537087zm-1.5549363 2.73001067-1.1233279 12.8518908c-.0546062.772203-.7046395 1.3753648-1.4977704 1.3753648-.7748475 0-1.4223212-.6031618-1.479609-1.3962055l-1.0973655-12.8102094c-.0259623-.3666014.0961703-.7150434.3457988-.9802445.2496284-.265201.5876262-.4134016.9517082-.4134016h2.6003772c.364082 0 .7020799.1482006.9517083.4134016.2496284.2652011.3718829.6136431.3484803.9594038z"></path></g></svg> 