<?xml version="1.0" encoding="UTF-8"?> <svg xmlns="http://www.w3.org/2000/svg" xmlns:xlink="http://www.w3.org/1999/xlink" width="60px" height="61px" viewBox="0 0 60 61" version="1.1"><!-- Generator: Sketch 59 (86127) - https://sketch.com/ --><title>commerce@2x</title><desc>Created with Sketch.</desc><g id="Mockups" stroke="none" stroke-width="1" fill="none" fill-rule="evenodd"><g id="01---Home" transform="translate(-736.000000, -3096.000000)" fill="#242021" fill-rule="nonzero"><g id="How" transform="translate(0.000000, 2769.000000)"><g id="Group" transform="translate(736.000000, 321.000000)"><g id="Card"><g id="commerce" transform="translate(0.000000, 6.000000)"><path d="M53.3832542,11.8330389 L47.3541022,11.8330389 L48.427838,10.7332155 C50.8655863,8.27103583 50.8655863,4.30446668 48.427838,1.84145873 C45.9726976,-0.613681484 41.9912213,-0.613681484 39.536081,1.84145873 L30.1942082,11.1704947 L23.2909122,4.26678445 C21.0639355,2.03815145 17.5313328,1.80294827 15.0285722,3.71604466 C12.5262257,5.62914085 11.8264134,9.09963011 13.3920881,11.8330389 L6.71364286,11.8330389 C3.05515675,11.8342812 0.0898575265,14.7999945 0.0882011661,18.4584806 L0.0882011661,25.8524735 C0.0902715901,26.5833425 0.682420495,27.1754914 1.41328951,27.1775618 L3.82495028,27.1775618 L3.82495028,54.3286219 C3.82660664,57.987108 6.79190587,60.9524072 10.450392,60.9540636 L49.6332542,60.9540636 C53.2921543,60.9524072 56.2574536,57.987108 56.2586959,54.3286219 L56.2586959,27.1775618 L58.6707708,27.1775618 C59.4016398,27.1754914 59.9937886,26.5833425 59.9958814,25.8524735 L59.9958814,18.4584806 C60.0004141,16.7023245 59.3051567,15.0165636 58.0645429,13.773051 C56.824343,12.5299525 55.1394104,11.8322107 53.3832542,11.8330389 Z M41.4048698,3.71024735 C42.0852197,3.02741279 43.0115394,2.64603583 43.975127,2.65014331 C45.445561,2.64769208 46.7727197,3.53218855 47.3358823,4.8904041 C47.8990448,6.24903382 47.587235,7.81346618 46.5462125,8.85159011 L46.5325475,8.86442693 L43.6438549,11.819788 L33.2816641,11.819788 L41.4048698,3.71024735 Z M25.4110535,24.5273852 L25.4110535,14.4832155 L34.554163,14.4832155 L34.554163,24.5273852 L25.4110535,24.5273852 Z M34.554163,27.1775618 L34.554163,58.3038869 L25.4110535,58.3038869 L25.4110535,27.1775618 L34.554163,27.1775618 Z M16.267944,11.2897527 C14.8583811,9.86818134 14.8637644,7.57453622 16.2787102,6.15959035 C17.6944843,4.74381625 19.9873012,4.73926124 21.4088725,6.14799583 L27.0939157,11.8330389 L16.810816,11.8330389 L16.267944,11.2897527 Z M2.73837784,18.4584806 C2.74458922,16.2654594 4.52103583,14.4894269 6.71364286,14.4832155 L22.7608768,14.4832155 L22.7608768,24.5273852 L2.73837784,24.5273852 L2.73837784,18.4584806 Z M6.47512696,54.3286219 L6.47512696,27.1775618 L22.7608768,27.1775618 L22.7608768,58.3038869 L10.450392,58.3038869 C8.25778495,58.2976755 6.4817524,56.521229 6.47512696,54.3286219 Z M53.6217701,54.3286219 C53.6155588,56.521229 51.8391122,58.2976755 49.6465051,58.3038869 L37.2043397,58.3038869 L37.2043397,27.1775618 L53.6217701,27.1775618 L53.6217701,54.3286219 Z M57.3585192,24.5273852 L37.2043397,24.5273852 L37.2043397,14.4832155 L53.3832542,14.4832155 C55.5762754,14.4894269 57.3523079,16.2654594 57.3585192,18.4584806 L57.3585192,24.5273852 Z" id="Shape"></path></g></g></g></g></g></g></svg> 